#tb 0: 1/25
#media_type 0: video
#codec_id 0: rawvideo
#dimensions 0: 352x288
#sar 0: 0/1
0,          0,          0,        1,   304128, 0xb3aa278e
0,          1,          1,        1,   304128, 0x61ead61b
0,          2,          2,        1,   304128, 0xa13ff73f
0,          3,          3,        1,   304128, 0x21e60ac9
0,          4,          4,        1,   304128, 0x3fba8d77
0,          5,          5,        1,   304128, 0x1d0ec25c
0,          6,          6,        1,   304128, 0xce244c19
0,          7,          7,        1,   304128, 0x3677eb76
0,          8,          8,        1,   304128, 0x075a566a
0,          9,          9,        1,   304128, 0x198997c0
0,         10,         10,        1,   304128, 0x1d590633
0,         11,         11,        1,   304128, 0xf314bd3c
0,         12,         12,        1,   304128, 0x4632c7d3
0,         13,         13,        1,   304128, 0x30006871
0,         14,         14,        1,   304128, 0x0efa3508
0,         15,         15,        1,   304128, 0x99f83d90
0,         16,         16,        1,   304128, 0x215595d3
0,         17,         17,        1,   304128, 0xb9bddce7
0,         18,         18,        1,   304128, 0x736e35a9
0,         19,         19,        1,   304128, 0x17068e09
0,         20,         20,        1,   304128, 0xf46f19a6
0,         21,         21,        1,   304128, 0x2d507f26
0,         22,         22,        1,   304128, 0x66eee1b4
0,         23,         23,        1,   304128, 0x4bce85ff
0,         24,         24,        1,   304128, 0x518c506d
0,         25,         25,        1,   304128, 0x2633cd90
0,         26,         26,        1,   304128, 0xcbd34def
0,         27,         27,        1,   304128, 0x32723151
0,         28,         28,        1,   304128, 0x70a307b0
0,         29,         29,        1,   304128, 0xff92b107
0,         30,         30,        1,   304128, 0xd0b64bf5
0,         31,         31,        1,   304128, 0xb98c1d08
0,         32,         32,        1,   304128, 0xc4a7a6b5
0,         33,         33,        1,   304128, 0x8b46507e
0,         34,         34,        1,   304128, 0x6c851d4c
0,         35,         35,        1,   304128, 0xb9818a3d
0,         36,         36,        1,   304128, 0xf8e1b84f
0,         37,         37,        1,   304128, 0x50fae0f2
0,         38,         38,        1,   304128, 0xd57601b7
0,         39,         39,        1,   304128, 0x465daf8f
0,         40,         40,        1,   304128, 0xf75f50a3
0,         41,         41,        1,   304128, 0x0ac8e29a
0,         42,         42,        1,   304128, 0x2a586993
0,         43,         43,        1,   304128, 0xae56e5fc
0,         44,         44,        1,   304128, 0xfa2f5d29
0,         45,         45,        1,   304128, 0xac09cdd9
0,         46,         46,        1,   304128, 0x22683a28
0,         47,         47,        1,   304128, 0x2a7da356
0,         48,         48,        1,   304128, 0x824b0ac4
0,         49,         49,        1,   304128, 0x09a171fd
